HIERARCHY
ROOT Hips
{
    OFFSET 0.0 0.0 0.0
    CHANNELS 6 Xposition Yposition Zposition Zrotation Xrotation Yrotation
    JOINT LeftHipJoint
    {
        OFFSET 0.1 0.0 0.0
        CHANNELS 3 Zrotation Xrotation Yrotation
        JOINT LeftUpLeg
        {
            OFFSET 122.57597663632745 0.0 0.0
            CHANNELS 3 Zrotation Xrotation Yrotation
            JOINT LeftLeg
            {
                OFFSET 0.0 0.0 -397.33083568532254
                CHANNELS 3 Zrotation Xrotation Yrotation
                JOINT LeftFoot
                {
                    OFFSET 0.0 0.0 -384.6027909073572
                    CHANNELS 3 Zrotation Xrotation Yrotation
                    End Site
                    {
                        OFFSET 0.0 -0.1 0.0
                    }
                }
            }
        }
    }
    JOINT LowerBack
    {
        OFFSET 0.0 0.0 0.1
        CHANNELS 3 Zrotation Xrotation Yrotation
        JOINT Spine
        {
            OFFSET 0.0 0.0 218.40737801711825
            CHANNELS 3 Zrotation Xrotation Yrotation
            JOINT Spine1
            {
                OFFSET 0.0 0.0 255.20520966638787
                CHANNELS 3 Zrotation Xrotation Yrotation
                JOINT LeftShoulder
                {
                    OFFSET 0.1 0.0 0.0
                    CHANNELS 3 Zrotation Xrotation Yrotation
                    JOINT LeftArm
                    {
                        OFFSET 145.09823452882893 0.0 0.0
                        CHANNELS 3 Zrotation Xrotation Yrotation
                        JOINT LeftForeArm
                        {
                            OFFSET 254.97673228421647 0.0 0.0
                            CHANNELS 3 Zrotation Xrotation Yrotation
                            JOINT LeftHand
                            {
                                OFFSET 237.90679405803118 0.0 0.0
                                CHANNELS 3 Zrotation Xrotation Yrotation
                                End Site
                                {
                                    OFFSET 0.1 0.0 0.0
                                }
                            }
                        }
                    }
                }
                JOINT Neck
                {
                    OFFSET 0.0 0.0 0.1
                    CHANNELS 3 Zrotation Xrotation Yrotation
                    JOINT Neck1
                    {
                        OFFSET 0.0 0.0 109.27703502655186
                        CHANNELS 3 Zrotation Xrotation Yrotation
                        End Site
                        {
                            OFFSET 0.0 0.0 114.06796889618181
                        }
                    }
                }
                JOINT RightShoulder
                {
                    OFFSET -0.1 0.0 0.0
                    CHANNELS 3 Zrotation Xrotation Yrotation
                    JOINT RightArm
                    {
                        OFFSET -145.09823452882893 0.0 0.0
                        CHANNELS 3 Zrotation Xrotation Yrotation
                        JOINT RightForeArm
                        {
                            OFFSET -254.97673228421647 0.0 0.0
                            CHANNELS 3 Zrotation Xrotation Yrotation
                            JOINT RightHand
                            {
                                OFFSET -237.90679405803118 0.0 0.0
                                CHANNELS 3 Zrotation Xrotation Yrotation
                                End Site
                                {
                                    OFFSET -0.1 0.0 0.0
                                }
                            }
                        }
                    }
                }
            }
        }
    }
    JOINT RightHipJoint
    {
        OFFSET -0.1 0.0 0.0
        CHANNELS 3 Zrotation Xrotation Yrotation
        JOINT RightUpLeg
        {
            OFFSET -122.57597663632745 0.0 0.0
            CHANNELS 3 Zrotation Xrotation Yrotation
            JOINT RightLeg
            {
                OFFSET 0.0 0.0 -397.33083568532254
                CHANNELS 3 Zrotation Xrotation Yrotation
                JOINT RightFoot
                {
                    OFFSET 0.0 0.0 -384.6027909073572
                    CHANNELS 3 Zrotation Xrotation Yrotation
                    End Site
                    {
                        OFFSET 0.0 -0.1 0.0
                    }
                }
            }
        }
    }
}
MOTION
Frames: 11
Frame Time: 0.03333333333333333
0.0 0.0 797.7603222721133 25.17869972597993 1.584285198065535 6.378357429040423 0.0 0.0 1.428764798313689e-16 -0.1395690638299157 -16.74350857669715 -2.4664425783226775 -1.034165508635041 27.59679230694043 0.4294104154948818 -3.1805546814635168e-15 0.0 0.0 0.0 0.0 1.428764798313689e-16 -0.01902807414720226 -2.320584167610453 -4.589676047705359 0.004473686547154812 -9.700761344424619e-21 -2.4848083429997705e-16 0.0 0.0 4.969616689786745e-17 -43.89761085550347 5.558278945044197 78.24771931654122 -20.74041932237524 5.899374139718374e-15 3.1004244054137485e-15 0.0 0.0 2.4848083448933726e-15 0.0 0.0 4.969616689786745e-17 -3.1713445580077666 -4.481518562779483 -1.6173844555588452 0.0 0.0 4.969616689786745e-17 21.23101875175359 8.622466295020235 -66.78878505529909 45.92793805133669 -5.856993902972876e-15 2.4818007066758077e-15 0.0 0.0 -3.1805546814635168e-15 0.0 0.0 1.428764798313689e-16 -0.10806595798460152 -12.77642706344243 -3.6163697167394515 -1.4320381063705088 24.537007822912408 1.2456740870255105 0.0 0.0 -7.951386703658792e-16
0.0 0.0 797.7603222721133 25.342795135667462 1.7553491986520182 6.291652050091901 0.0 0.0 -2.4848083448933725e-17 -0.10845340959426698 -17.08293596420312 -2.4572758849316543 -1.1030229389206347 27.88071895077863 0.5731869275773158 9.655420026984722e-33 1.3914926731402884e-15 -7.951386703658791e-16 0.0 0.0 -2.4848083448933725e-17 -0.015035168206640762 -2.4029207513479496 -4.335212330990624 0.118871058093291 9.985624916912553e-17 4.471621572436924e-16 0.0 0.0 9.93923337957349e-17 -43.718775895550706 5.764567747770073 78.10335245965327 -20.74000027452666 -2.003795380465267e-15 1.0950110642136219e-14 0.0 0.0 2.037542842812565e-15 0.0 0.0 9.93923337957349e-17 -3.632360892007154 -4.57037138679607 -2.0370141605479675 0.0 0.0 9.93923337957349e-17 20.39012334810211 7.397867276233406 -65.87110532061784 46.80694066577539 -1.1675569033467419e-14 5.053309514883149e-15 0.0 0.0 -2.3854160110976376e-15 0.0 0.0 -2.4848083448933725e-17 -0.08523209017405582 -13.145810401940288 -3.559425543829255 -1.480524922313139 24.87110305843367 1.2537876064882207 0.0 0.0 -3.975693351829396e-16
0.0 0.0 797.7603222721133 25.304121290014912 1.6063621534655859 6.312948265840685 3.1805546814635164e-15 -1.2069275033730902e-33 -4.348414603563401e-17 -0.08864723482717209 -17.01847602004528 -2.4714209485769207 -1.1461260899550132 27.88817771967843 0.58624996746064 0.0 0.0 0.0 3.1805546814635164e-15 -1.2069275033730902e-33 -4.348414603563401e-17 -0.012586412799672944 -2.444685248372623 -4.360139857890295 0.16107144757694078 -6.286822411780832e-19 -4.472650602385973e-16 0.0 0.0 -4.9696166897867443e-17 -42.663746688330654 5.811493923046814 78.18799363981728 -20.87166450724761 -4.0641175474612025e-15 4.506800332070016e-15 0.0 0.0 4.969616689786745e-17 0.0 0.0 -4.9696166897867443e-17 -3.635081576017023 -4.19208558867099 -2.093712089957481 0.0 0.0 -4.9696166897867443e-17 18.844331323389017 6.7350595025252264 -64.96781784864359 48.41893767231978 -7.105926840023876e-15 -2.923083186051449e-16 0.0 0.0 -8.74652537402467e-15 3.1805546814635164e-15 -1.2069275033730902e-33 -4.348414603563401e-17 -0.06954545385579643 -12.999901857954567 -3.585923649784957 -1.510581813169439 24.68887467388251 1.1557246734145243 0.0 0.0 0.0
0.0 0.0 797.7603222721133 25.28370363908674 1.6163767629130872 6.323737874842152 0.0 0.0 -3.2302508483613845e-16 -0.06877955139533727 -17.27171150480345 -2.48685960257008 -1.197946270146781 27.99939317563748 0.5156997369808399 0.0 0.0 -3.975693351829396e-16 0.0 0.0 -3.2302508483613845e-16 -0.009777051572538798 -2.4784085569313667 -4.239718654502718 0.2839292969644398 -2.9657533657920914e-16 6.467869940117625e-16 0.0 0.0 4.969616689786745e-17 -42.49509889205745 5.741166251550682 77.94698899093757 -20.64770366784733 -1.2878395834695767e-14 1.7455533160116166e-14 -3.1805546814635176e-15 -7.172597734331508e-32 2.584200678689108e-15 0.0 0.0 4.969616689786745e-17 -3.9038861173491632 -4.181671643796457 -2.3314602532083777 0.0 0.0 4.969616689786745e-17 17.884320848488308 5.446937900460513 -63.7825605771078 49.60084561893974 -1.3341115905562688e-15 -2.8872260641873744e-15 0.0 0.0 -2.4848083448933726e-15 0.0 0.0 -3.2302508483613845e-16 -0.05425531809559484 -13.182247838938087 -3.7172313499950036 -1.6104592011631047 24.779765186535347 1.4158718399023809 0.0 0.0 -7.951386703658792e-16
0.0 0.0 797.7603222721133 25.292514092795464 1.554865390340364 6.260000697498346 0.0 0.0 -3.6650923087177246e-16 -0.03255844412073681 -17.339835300173885 -2.478416336889599 -1.2515427957233896 27.860366687672425 0.5489322872304816 0.0 0.0 3.975693351829396e-16 0.0 0.0 -3.6650923087177246e-16 -0.004565759118760282 -2.409844514512792 -3.9634872262388403 0.4804654108295801 -9.772451576717824e-17 3.9798257664530726e-16 -3.4483642953516864e-34 -9.93923337957349e-17 -3.975693351829396e-16 -42.09162163936465 5.726880869870726 77.64296166050008 -20.511311024288013 0.0 0.0 0.0 0.0 1.5522287129505786e-15 -3.4483642953516864e-34 -9.93923337957349e-17 -3.975693351829396e-16 -4.374609879614102 -3.9971351073178343 -2.7016865276395357 -3.4483642953516864e-34 -9.93923337957349e-17 -3.975693351829396e-16 16.996914854090377 3.6530804362682034 -62.34619509042729 51.287078645605014 -4.1293548280535085e-15 -8.601847559684293e-15 0.0 0.0 9.93923337957349e-16 0.0 0.0 -3.6650923087177246e-16 -0.026794669047204678 -13.26837097364883 -3.7779575467608173 -1.6902447940587293 24.72496253042318 1.626779557101108 0.0 0.0 -3.975693351829396e-16
0.0 0.0 797.7603222721133 25.31670284170126 1.5720172739802778 6.123971315598781 0.0 0.0 7.454425034680117e-17 -0.030131867348650813 -17.192326699781994 -2.425776450194019 -1.1990839936981295 27.30220039564596 0.7304411793966238 0.0 0.0 -3.975693351829396e-16 0.0 0.0 7.454425034680117e-17 -0.004266920627235768 -2.420206638798979 -3.7710191633812005 0.32499071616880065 -4.968187282958745e-16 5.1105387708933945e-17 0.0 0.0 4.969616689786745e-17 -41.535980420248386 5.443760990972805 77.1792625290169 -20.487725436964823 -5.038836592702498e-15 9.997639580438041e-15 0.0 0.0 -1.6772456328030265e-15 0.0 0.0 4.969616689786745e-17 -5.151959176274442 -3.8146521712544925 -3.2191878286776445 0.0 0.0 4.969616689786745e-17 16.358045602329316 2.2249611301816596 -61.001978738108136 53.29747352742187 -4.27962246791888e-15 -8.52808209787519e-15 0.0 0.0 7.951386703658792e-16 0.0 0.0 7.454425034680117e-17 -0.024878632258165608 -13.304887437557094 -3.7537192051738377 -1.6625853335169467 24.465521381135904 1.7145346406742241 0.0 0.0 0.0
0.0 0.0 797.7603222721133 25.198062450785848 1.5609147890328032 6.18760091382527 0.0 0.0 3.540851891473056e-16 -0.040001886536633606 -17.36440890218403 -2.5285984712365246 -1.2355181926284688 27.298059361084643 0.7595215714402467 0.0 0.0 3.975693351829396e-16 0.0 0.0 3.540851891473056e-16 -0.005603102739575832 -2.4419699333120883 -3.6837971918129653 0.3893250177629597 2.9598032812404693e-16 -6.470594959147301e-16 0.0 0.0 -1.4908850069360235e-16 -40.52417076871217 5.249654537366435 76.90002201952844 -20.56653665820181 7.032928653025183e-15 -2.0947303069454922e-14 0.0 0.0 -3.0314661807699143e-15 0.0 0.0 -1.4908850069360235e-16 -5.49016790179644 -3.8229889956235024 -3.59243616059352 0.0 0.0 -1.4908850069360235e-16 15.297019445752966 0.43167463251805727 -59.76305213597822 55.3233168982812 -4.660654981820387e-16 1.2812752018216893e-14 0.0 0.0 -2.3854160110976376e-15 0.0 0.0 3.540851891473056e-16 -0.03258203124161564 -13.523560934452611 -3.879143010131431 -1.7311817573352697 24.789150189001873 1.8882061996898085 0.0 0.0 -7.951386703658792e-16
0.0 0.0 797.7603222721133 25.16532654904732 1.5707239392064052 6.0695916552899645 0.0 0.0 1.3045243810690206e-16 -0.01690440984883183 -17.550741567214978 -2.3665199481349495 -1.1800094758443223 27.061624995375436 0.9171286265659514 0.0 0.0 0.0 0.0 0.0 1.3045243810690206e-16 -0.0025262562643092066 -2.5439378128860675 -3.4028526112980537 0.729488214089343 -1.0065577161013124e-16 -1.981479137623786e-16 0.0 0.0 4.969616689786745e-17 -40.364844674285465 5.272638488726684 76.5089344491913 -20.91484835432337 -2.6699479205929665e-15 1.4465731997573987e-14 0.0 0.0 -2.9817700138720468e-15 0.0 0.0 4.969616689786745e-17 -6.430964038616192 -3.7914419773428416 -4.007330957037488 0.0 0.0 4.969616689786745e-17 14.499983894446816 -2.26585201000386 -58.35108154122445 57.17426449504664 -5.585629447414253e-15 3.0437568896508e-15 0.0 0.0 -2.3854160110976376e-15 0.0 0.0 1.3045243810690206e-16 -0.015001130221905756 -13.850279287137568 -3.7337309616618075 -1.6970799181308673 24.761444745242127 1.8305971267673333 0.0 0.0 0.0
0.0 0.0 797.7603222721133 24.96806347897931 1.6830596857124243 5.9913100015829315 0.0 0.0 -1.1181637552020177e-16 -0.007326315113767768 -17.642564482519333 -2.545137194741106 -1.2750229697747404 26.830311157103623 1.2051886793256812 0.0 0.0 3.975693351829396e-16 0.0 0.0 -1.1181637552020177e-16 -0.0011035318384377015 -2.3984418363363513 -3.3969166261676262 1.032272241299706 -1.0341733703935854e-16 -4.463520132906839e-16 0.0 0.0 4.969616689786745e-17 -39.22594618868247 5.269562276437356 76.00705511727469 -22.143433688934962 -1.0500373244938588e-14 -1.2587553431435585e-14 0.0 0.0 7.951386703658792e-16 0.0 0.0 4.969616689786745e-17 -7.732729686970852 -4.141019513289189 -4.110187306496578 0.0 0.0 4.969616689786745e-17 14.217644380735056 -5.1834884908768535 -55.97420393994532 59.48407258872454 -4.734216333669349e-15 4.536506370940216e-15 0.0 0.0 0.0 0.0 0.0 -1.1181637552020177e-16 -0.007399816471472224 -13.756590859935605 -3.720396873278535 -1.6727805067956705 24.342612188236284 1.761533647481335 0.0 0.0 -3.975693351829396e-16
0.0 0.0 797.7603222721133 24.795353095314244 1.9910586174379414 5.972829213254661 0.0 0.0 1.2424041724466862e-16 -0.018580836704569937 -18.221508476082352 -2.587275044727349 -1.2772229259704153 26.80402619262191 1.1600818654956941 -3.1805546814635168e-15 0.0 0.0 0.0 0.0 1.2424041724466862e-16 -0.002766910818936153 -2.662666708985505 -3.1763367592429628 1.6995322158746193 5.8962207002195556e-18 3.9752561031870496e-16 0.0 0.0 -9.93923337957349e-17 -39.155585618336346 5.627497770954158 75.71155520257905 -22.70277143897076 4.292115280234517e-15 -5.220870058281751e-15 0.0 0.0 -1.987846675914698e-16 0.0 0.0 -9.93923337957349e-17 -8.562330580482131 -4.460717140295051 -4.418155139541128 0.0 0.0 -9.93923337957349e-17 13.664609907690943 -8.936631999837699 -53.05137422884035 60.52958397221294 1.270757935114295e-14 9.155800512110227e-15 1.2722218725854067e-14 6.3611093629270335e-15 6.361109362927033e-15 0.0 0.0 1.2424041724466862e-16 -0.015717234481570006 -13.995724762929484 -3.6720664133631566 -1.6395546802688683 24.39919648780483 1.4360680182747636 0.0 0.0 3.975693351829396e-16
0.0 0.0 797.7603222721133 24.988983151641868 2.681215373440735 5.803242584674359 0.0 0.0 3.975693351829396e-16 0.06309381687441191 -19.237026330436667 -2.4556910069136824 -1.3613035177029997 27.206937441566737 1.4912275504628818 0.0 0.0 7.951386703658792e-16 0.0 0.0 3.975693351829396e-16 0.00892366363763179 -2.8686592839641407 -2.8471837281133214 2.0552235496251336 -1.1274529863509232e-16 -7.435400860946929e-16 0.0 0.0 0.0 -38.71525370933572 5.8070811680949355 75.49417825474612 -23.024963450602556 -6.109753335881401e-15 2.99969467467239e-14 0.0 0.0 -2.5842006786891076e-15 0.0 0.0 0.0 -10.000066260550446 -4.775409638724927 -4.8209589207591765 0.0 0.0 0.0 13.516109868865179 -13.378867081585295 -49.934642536173456 61.59316903985216 -1.3777994569119376e-14 1.7325543894026817e-15 0.0 0.0 -3.1805546814635168e-15 0.0 0.0 3.975693351829396e-16 0.04619951680264109 -14.791060234051649 -3.5176574573346295 -1.6828941517042266 24.422894743353915 1.3628989356488028 0.0 0.0 7.951386703658792e-16
